<?xml version="1.0" encoding="UTF-8"?>
<svg width="128pt" height="128pt" version="1.1" viewBox="0 0 128 128" xmlns="http://www.w3.org/2000/svg">
 <path d="m39.68 39.652 16.641-9.8164v-9.8555l-25.543-14.93-25.172 14.59-0.48438 0.41016v29.781l25.328 14.59 0.54297 0.30078 8.6914-4.9648zm-8.9609 22.07-23.039-13.242v-25.797l23.039 13.238zm-21.984-41.066 22.355-12.906 22.938 13.246-22.355 12.902z"/>
 <path d="m96.969 5.0508-24.988 14.59-0.30078 0.41016v9.7852l16.641 9.8164v20.117l8.1367 4.6523 0.63281 0.30078 25.789-14.895v-29.848zm-0.63672 28.844-22.355-12.902 22.938-13.242 22.355 12.906zm23.988 14.586-23.039 13.242v-25.805l23.039-13.238z"/>
 <path d="m81.516 72.297-17.516 10.113-17.621-10.172-7.5859 4.4141-0.39453 0.40625v29.781l25.145 14.59 0.44922 0.30078 25.609-14.891v-29.852zm-18.797 46.031-21.758-12.84v-26.438l21.758 12.867zm24.32-12.84-21.758 12.844v-26.414l21.762-12.867z"/>
 <path d="m87.039 41.77v-1.3828l-0.96484-0.66797-22.156 12.836-22.02-12.844-0.9375 0.67578v1.3828l21.758 12.812v25.621l1.2812 0.74219 1.2812-0.74219v-25.621z"/>
</svg>
